inDegrees=yes
name=ik_Shooting_orientations.mot
DataType=double
version=3
OpenSimVersion=4.3-2021-08-27-4bc7ad9
endheader
time	pelvis_tilt	pelvis_list	pelvis_rotation	pelvis_tx	pelvis_ty	pelvis_tz	hip_flexion_r	hip_adduction_r	hip_rotation_r	knee_angle_r	knee_angle_r_beta	ankle_angle_r	subtalar_angle_r	mtp_angle_r	hip_flexion_l	hip_adduction_l	hip_rotation_l	knee_angle_l	knee_angle_l_beta	ankle_angle_l	subtalar_angle_l	mtp_angle_l	lumbar_extension	lumbar_bending	lumbar_rotation	arm_flex_r	arm_add_r	arm_rot_r	elbow_flex_r	pro_sup_r	wrist_flex_r	wrist_dev_r	arm_flex_l	arm_add_l	arm_rot_l	elbow_flex_l	pro_sup_l	wrist_flex_l	wrist_dev_l
7.25999999999989	47.01208045791476	-72.81880758009225	51.56546374083006	0	0.93	0	-29.99835516973987	29.99695421796245	-39.99874377575892	35.83795650535843	0.6254903382050255	-4.819287879417971	0	0	36.19228627349096	-49.98633883022894	-39.99754067938732	35.83795650535843	0.6254903382050255	-4.819287879417954	0	0	0	0	0	0	0	0	0	0	0	0	0	0	0	0	0	0	0
7.269999999999889	59.55345754525999	-69.30699909708113	72.05812198637224	0	0.93	0	-29.99852803325922	29.99750632359899	-39.99886090900679	35.86096662907376	0.6258919406251492	-4.820128524107248	0	0	29.95275372165092	-49.96794091727556	-39.99711108968208	35.86096662907376	0.6258919406251492	-4.820128524107159	0	0	0	0	0	0	0	0	0	0	0	0	0	0	0	0	0	0	0
7.279999999999889	59.29117637812377	-69.45404325676277	71.79714537603095	0	0.93	0	-29.9985285276597	29.99750879231853	-39.99885838131474	35.87802592761932	0.6261896815528498	-4.820651571245387	0	0	29.85046725377811	-49.96362102532035	-39.99711192055523	35.87802592761932	0.6261896815528498	-4.820651571245299	0	0	0	0	0	0	0	0	0	0	0	0	0	0	0	0	0	0	0
7.289999999999889	46.25236835118523	-73.12763165402552	50.46328725690871	0	0.93	0	-29.99835532700106	29.99695247006268	-39.99873678650217	35.90179872293894	0.62660459510358	-4.821515325543128	0	0	36.27360094511606	-49.98454543993115	-39.99753674637682	35.90179872293894	0.62660459510358	-4.821515325543041	0	0	0	0	0	0	0	0	0	1.054458913370965e-39	0	0	0	0	0	0	1.054458913370965e-39	0	0
7.299999999999889	46.10561415218512	-73.16434657269585	50.23181646924313	0	0.93	0	-29.99835318162635	29.99695264507279	-39.9987355474668	35.93772392531908	0.6272316081695588	-4.822610867015578	0	0	36.16189860393334	-49.98387062188907	-39.99753874898292	35.93772392531908	0.6272316081695588	-4.82261086701549	0	0	0	0	0	0	0	0	9.606873147715865e-39	9.621093462057965e-39	0	0	0	0	0	9.606873147715865e-39	9.621093462057965e-39	0	0
7.309999999999889	34.24210692028818	-62.14914625024529	47.59072011071434	0	0.93	0	-29.99835034706128	29.99693813950265	-39.99893169154496	36.07485838613591	0.6296250560287595	-4.827551725805312	0	0	15.53159395799548	-34.46745137114898	-39.99798640509885	36.07485838613591	0.6296250560287595	-4.827551725805223	0	0	0	0	0	0	0	0	1.291147171323927e-39	1.677633441970718e-40	0	0	0	0	0	1.291147171323927e-39	1.677633441970718e-40	0	0
7.319999999999888	36.88028188474929	-70.62614353141413	40.60607912914032	0	0.93	0	-29.99828639885666	29.99668379314128	-39.9987528200723	36.11654834436395	0.6303526830648577	-4.829024799656248	0	0	34.28357913517708	-49.94438027769612	-39.99765802522053	36.11654834436395	0.6303526830648577	-4.829024799295394	0	0	0	0	0	0	0	0	0	0	0	0	0	0	0	0	0	0	0
7.329999999999888	45.31820423880032	-73.31930201871721	49.25606927379456	0	0.93	0	-29.99834946425913	29.99696313683744	-39.99872735397958	36.17490229320944	0.6313711516037519	-4.831020712864074	0	0	35.75045143088544	-49.97988533516434	-39.99754277711387	36.17490229320944	0.6313711516037519	-4.831020712507441	0	0	0	0	0	0	0	0	0	1.369770427650609e-38	0	0	0	0	0	0	1.369770427650609e-38	0	0
7.339999999999888	29.76601364885549	-57.67446757191101	46.9643152128203	0	0.93	0	-29.99832897585983	29.9969632410441	-39.99898917436185	36.23168388829078	0.6323621773924555	-4.832994315158146	0	0	5.8171800219361	-24.65045580600644	-39.99807297930012	36.23168388829078	0.6323621773924555	-4.83299431480527	0	0	0	0	0	0	0	0	0	0	0	0	0	0	0	1.882759929231536e-38	2.568654192091553e-39	0	0
7.349999999999888	7.811974675148638	-29.3876888637844	12.87679065205888	0	0.93	0	-29.99676935617018	29.89084013278519	-39.99896619902969	36.50388974470275	0.6371130658300553	-4.842420273885341	0	0	-29.99231700592882	29.69893263677541	-39.99838840086773	36.50388974470275	0.6371130658300553	-4.84242027355239	0	0	0	0	0	0	0	0	0	0	0	0	0	0	0	0	0	0	0
7.359999999999888	44.34982871259194	-73.37782602650543	48.11780563609136	0	0.93	0	-29.99834499374097	29.99699149997873	-39.99871808974036	40.45833254552417	0.7061311127861754	-4.945256877699402	1.791507124276899e-21	2.206797440535384e-21	35.34761002449443	-49.97303559879987	-39.99754746150849	40.45833254552417	0.7061311127861754	-4.945256877583707	1.881837754802646e-21	1.874982893066583e-20	-5.539999060167284e-53	7.432719265503549e-19	1.307928646908041e-32	4.663146672944011e-17	-1.582009951670686e-25	-5.217599760308274e-17	0	0	-7.592938776135904e-19	3.104637494627811e-19	1.30280650075065e-17	-3.977410348146602e-16	-1.153464175413267e-16	0	0	-9.684146951789166e-20	-2.756911311289474e-19
7.369999999999887	53.86827873140022	-70.79624494546285	63.27488727783341	0	0.93	0	-29.99846697965765	29.99738742840545	-39.99880912042978	40.50246288896678	0.7069013325792849	-4.945901734049823	0	0	30.04180985879457	-49.66191412406243	-39.99729197202717	40.50246288896678	0.7069013325792849	-4.945901733935491	0	0	0	0	0	0	0	0	0	0	0	0	0	0	0	0	0	0	0
7.379999999999887	53.29370723517842	-70.1929441459534	53.79809013134758	0	0.93	0	-29.99844688192865	29.99658185286353	-39.99873915766366	40.51357666571594	0.7070953045758892	-4.946062460489634	0	0	31.6411938881914	-49.98032738746794	-39.99763783421573	40.51357666571594	0.7070953045758892	-4.946062460375642	0	0	0	0	0	0	0	0	0	0	0	0	0	0	0	0	0	0	0
7.389999999999887	8.191228317391461	-29.36112227232596	19.46552773322702	0	0.93	0	-29.99706430635893	29.98313936840437	-39.99901941005415	40.63447320551247	0.709205347249607	-4.947779362993745	0	0	-29.9896061334563	26.88820989990974	-39.99819612800098	40.63447320551247	0.709205347249607	-4.947779362883381	0	0	0	0	0	0	0	0	0	0	0	0	0	0	0	0	0	0	0
7.399999999999887	60.91701910689778	-66.23053020009918	66.3389814241706	0	0.93	0	-29.99857797489829	29.99703619205025	-39.99883392536569	41.22027895434283	0.7194295863438078	-4.955819434612873	0	0	25.46831455483735	-49.93623840856625	-39.99740414941719	41.22027895434283	0.7194295863438078	-4.955819434519437	0	0	0	0	0	0	0	0	0	0	0	0	0	0	0	0	0	0	0
7.409999999999886	42.18372619290415	-72.93649544987554	45.57211538884706	0	0.93	0	-29.99832625356904	29.99708553170991	-39.99870000377989	41.28337321334283	0.7205307889024639	-4.956579712235535	0	0	34.51910908020141	-49.9304172777819	-39.99755802995139	41.28337321334283	0.7205307889024639	-4.956579712143515	0	0	0	0	0	0	0	0	2.582368491402942e-39	2.453121724332461e-38	0	0	0	0	0	2.721181383716251e-39	0	0	0
7.419999999999886	44.52383323104625	-83.18341866763727	47.48120980978429	0	0.93	0	-29.99823418955656	29.99758580706127	-39.99850218598457	41.38310668377137	0.7222714663358821	-4.957769295333295	0	0	44.8356722606303	-49.98872797988327	-39.99732084051486	41.38310668377137	0.7222714663358821	-4.9577692952444	0	0	0	0	0	0	0	0	0	0	0	0	0	0	0	0	0	0	0
7.429999999999886	41.25289059764733	-66.72761793722628	52.77110263281548	0	0.93	0	-29.99839632374722	29.99742327196728	-39.99885739686214	41.44185913455429	0.7232968900456601	-4.958463041629582	0	0	20.21244269083718	-38.35937754026068	-39.99776473978729	41.44185913455429	0.7232968900456601	-4.958463041542133	0	0	0	0	0	0	0	0	0	0	0	0	0	0	0	0	0	0	0
7.439999999999886	33.42470639341825	-81.96392882635247	27.12836152186305	0	0.93	0	-29.99820631210801	29.99691995659728	-39.99839656132746	41.53173903088982	0.7248655901680664	-4.959518948379931	0	0	47.22147763832849	-49.99346731679532	-39.99765018257024	41.53173903088982	0.7248655901680664	-4.959518948292124	0	0	0	0	0	0	0	0	0	0	0	0	0	0	0	0	0	0	0
7.449999999999886	38.78985181750482	-65.88559146728799	50.40053387655398	0	0.93	0	-29.9983822284636	29.99743789057477	-39.9988668650462	41.55952099194919	0.7253504768612131	-4.95983923161221	0	0	18.62315828131029	-36.20845186616302	-39.99782608338477	41.55952099194919	0.7253504768612131	-4.959839231525094	0	0	0	0	0	0	0	0	0	0	0	0	0	0	0	0	0	0	0
7.459999999999885	38.74099592426789	-72.57948497598466	41.29491401564979	0	0.93	0	-29.99831534489671	29.99717967338388	-39.99869541517472	41.6065266008475	0.7261708795033934	-4.960379251970251	0	0	34.42498062506141	-49.62580946930861	-39.9975686293465	41.6065266008475	0.7261708795033934	-4.960379251786769	0	0	0	0	0	0	0	0	2.107180772272308e-46	0	0	0	0	0	0	6.983099070902417e-47	0	0	0
7.469999999999885	8.389289986167419	-28.16036243131144	11.64775603583817	0	0.93	0	-29.99671120267708	29.97349212117179	-39.99894627147663	50.60574056510129	0.8832367932710733	-4.994358361654445	0	0	-29.99134107676002	29.95557872674944	-39.99832192800589	50.60574056510129	0.8832367932710733	-4.994358361628318	0	0	0	0	0	0	0	0	4.09316687091266e-40	2.514526112854345e-38	0	0	0	0	0	4.09316687091266e-40	2.514526112854345e-38	0	0
7.479999999999885	0.6194808370762546	-81.92295620189984	-2.991781100212068	0	0.93	0	-29.99806770719925	29.99733177261454	-39.99836774540771	51.15313186336876	0.8927905737226071	-4.995685596810275	0	0	50.05617659260787	-49.99125459623997	-39.99757050905632	51.15313186336876	0.8927905737226071	-4.99568559678721	0	0	0	0	0	0	0	0	0	0	0	0	0	0	0	0	0	0	0
7.489999999999885	34.78979457344484	-71.14007810505944	37.55067458487431	0	0.93	0	-29.99829769889826	29.99723245168675	-39.99871944823277	51.16838296235009	0.8930567556143788	-4.99572767778061	0	0	31.89526292697136	-46.52513256435068	-39.99771238149218	51.16838296235009	0.8930567556143788	-4.995727677700883	0	0	0	0	0	0	0	0	2.257630421550221e-39	0	0	0	0	0	0	0	1.962303959480722e-40	0	0
7.499999999999885	42.49140355238463	-70.81820672443637	42.20988197371769	0	0.93	0	-29.99837639354179	29.99705152191451	-39.99871453656676	51.17500519561472	0.8931723353886816	-4.99574592326379	0	0	32.99246432042084	-49.89681318021679	-39.99760753079747	51.17500519561472	0.8931723353886816	-4.995745923184405	0	0	0	0	0	0	0	0	0	5.137163473710736e-39	0	0	0	0	0	0	5.137163473710736e-39	0	0
7.509999999999884	13.74851820142965	-35.0089717952083	17.77116556814413	0	0.93	-6.557406274649661e-30	-29.99747475862198	29.99077802103372	-39.99896605344846	51.27761758872772	0.8949632595018543	-4.996018309718271	-5.851785419443912e-17	-3.213589835305656e-16	-29.97556003803124	22.07922252435142	-39.99835430682258	51.27761758872772	0.8949632595018543	-4.996018309643866	2.817509765639085e-16	4.950194610885806e-16	-2.140084638706927e-20	5.190222254580168e-21	-4.082382226038958e-17	1.607866261363733e-17	-2.251597120553256e-17	-1.032820256654844e-16	0	0	-1.448783129278136e-19	-2.54447044593918e-18	-1.442075627240635e-16	-1.270890283613811e-16	9.449160526352845e-17	0	0	-8.080768189753529e-21	8.872579113220098e-19
